<?xml version="1.0" standalone="no"?>
<!DOCTYPE svg PUBLIC "-//W3C//DTD SVG 20010904//EN"
 "http://www.w3.org/TR/2001/REC-SVG-20010904/DTD/svg10.dtd">
<svg version="1.0" xmlns="http://www.w3.org/2000/svg"
 width="512.000000pt" height="512.000000pt" viewBox="0 0 512.000000 512.000000"
 preserveAspectRatio="xMidYMid meet">
<metadata>
Created by potrace 1.16, written by Peter Selinger 2001-2019
</metadata>
<g transform="translate(0.000000,512.000000) scale(0.100000,-0.100000)"
fill="#000000" stroke="none">
<path d="M1960 4740 c-28 -28 -26 -75 5 -106 25 -25 25 -25 27 -252 3 -188 5
-227 17 -227 12 0 14 37 12 230 l-2 230 25 24 c34 32 35 83 4 105 -31 22 -64
20 -88 -4z m80 -43 c0 -45 -50 -64 -70 -27 -12 22 0 55 22 63 22 7 48 -13 48
-36z"/>
<path d="M3262 4743 c-25 -10 -34 -53 -17 -85 17 -35 18 -33 -62 -157 l-54
-84 -37 36 c-64 61 -138 89 -287 107 -152 19 -347 -10 -441 -65 -23 -14 -73
-55 -111 -92 -76 -74 -123 -156 -144 -249 -8 -33 -17 -53 -24 -50 -6 2 -36 0
-65 -6 -107 -19 -164 -84 -181 -204 -11 -78 3 -189 31 -243 24 -48 70 -87 111
-96 18 -4 41 -18 53 -31 14 -16 34 -26 59 -28 31 -3 43 -10 62 -39 27 -38 77
-61 158 -72 l47 -6 0 -64 0 -64 -35 -7 c-42 -8 -47 -4 -60 44 l-11 37 -69 -1
c-155 -1 -260 -58 -343 -185 l-38 -58 -11 29 c-24 64 -126 89 -202 51 -21 -11
-68 -52 -103 -91 -69 -74 -120 -162 -183 -315 -76 -184 -120 -255 -157 -255
-17 0 -17 2 -2 38 45 103 56 143 64 242 22 241 92 345 269 400 66 21 212 26
245 8 19 -10 20 -10 7 6 -41 49 -121 58 -232 28 -125 -35 -216 -106 -267 -209
-35 -70 -48 -126 -61 -259 -7 -76 -17 -121 -41 -177 -36 -88 -34 -111 15 -127
l34 -11 -20 -52 c-11 -29 -32 -83 -46 -120 l-26 -68 22 -22 c11 -13 24 -37 27
-55 6 -28 4 -32 -15 -32 -82 0 -153 -104 -191 -280 -11 -51 -42 -141 -70 -205
-28 -63 -57 -133 -65 -156 -17 -48 -20 -138 -5 -188 8 -28 6 -38 -10 -59 -28
-35 -27 -102 3 -133 20 -23 22 -35 22 -130 l0 -105 43 -73 c23 -41 42 -82 42
-93 0 -36 129 -127 214 -150 43 -11 49 -11 61 5 7 9 21 17 31 17 29 0 64 11
64 20 0 4 -16 14 -36 22 l-37 15 39 6 c22 4 47 12 57 19 16 12 16 15 2 36 -21
28 -64 29 -99 1 -20 -16 -35 -20 -58 -15 -38 8 -69 33 -62 51 3 7 1 22 -5 34
-9 16 -7 21 10 26 12 4 40 2 64 -5 51 -14 81 -3 96 38 15 38 2 109 -27 151
-14 21 -24 50 -24 71 0 19 -7 48 -15 64 -13 25 -13 31 -1 45 8 9 26 45 41 81
15 36 62 133 105 215 72 138 131 279 129 308 0 7 -8 -10 -18 -38 -25 -69 -77
-169 -160 -310 -40 -66 -79 -144 -87 -172 -8 -29 -20 -56 -26 -59 -6 -4 -5 2
2 15 13 25 5 74 -15 91 -11 9 2 35 69 138 112 172 151 245 172 321 10 36 29
75 42 88 22 22 23 29 17 95 -7 69 -7 71 14 65 14 -3 30 2 46 16 27 25 100 190
152 347 19 58 37 107 39 109 2 2 17 -2 34 -9 22 -9 30 -19 30 -39 4 -236 22
-467 44 -563 41 -178 74 -229 174 -274 l52 -23 0 -85 c0 -74 3 -87 19 -96 13
-7 22 -7 26 0 3 5 14 10 23 10 14 -1 14 -2 -3 -12 -28 -16 -35 -28 -35 -65 0
-34 -32 -117 -49 -127 -18 -11 -13 -51 10 -80 23 -30 18 -46 -15 -46 -46 0
-87 -22 -115 -64 -104 -151 -205 -446 -255 -747 -33 -192 -33 -211 -4 -207 20
3 23 12 35 107 36 288 127 609 222 786 17 33 30 49 27 36 -3 -13 0 -48 5 -77
8 -44 4 -83 -25 -251 -38 -217 -86 -539 -86 -578 0 -16 6 -25 15 -25 8 0 15 7
15 15 0 33 80 630 95 707 9 46 21 106 26 134 5 28 16 59 23 69 19 26 46 12 46
-24 0 -79 32 -133 218 -370 39 -51 72 -103 72 -114 -1 -34 -36 -104 -59 -117
-12 -6 -80 -13 -151 -17 -108 -5 -133 -9 -140 -23 -10 -19 -40 -195 -40 -236
0 -16 5 -24 13 -22 9 4 36 147 46 250 1 3 64 8 140 10 156 3 171 9 191 77 19
62 20 64 25 59 3 -2 -16 -89 -40 -193 -25 -104 -45 -193 -45 -197 0 -4 6 -8
14 -8 8 0 19 28 31 83 9 45 28 131 42 190 l25 109 35 -34 c35 -33 35 -34 29
-97 -6 -55 -23 -149 -41 -228 -5 -21 -2 -23 44 -23 l49 0 11 75 c15 100 13
194 -3 224 -11 21 -11 30 0 57 8 19 14 43 14 55 0 19 4 20 48 14 33 -4 62 -1
92 9 25 9 48 16 53 16 4 0 7 -38 7 -84 0 -75 21 -283 35 -343 3 -14 13 -23 24
-23 17 0 18 4 4 83 -8 45 -16 125 -19 177 -5 92 -5 94 11 65 9 -16 24 -38 32
-48 10 -10 25 -68 37 -145 16 -94 26 -128 37 -130 13 -2 12 12 -6 105 -12 59
-25 120 -28 136 l-7 27 80 0 c91 0 84 8 95 -110 14 -159 15 -160 47 -160 29 0
29 1 23 43 -11 85 -35 421 -35 502 0 76 2 86 28 116 l27 33 6 -64 6 -65 1 71
c2 53 6 75 19 85 9 8 37 59 63 114 66 140 97 166 156 132 26 -15 91 -89 72
-82 -8 3 -23 -4 -34 -16 -15 -17 -20 -39 -22 -113 -3 -77 0 -104 20 -164 27
-80 19 -84 -13 -6 -17 42 -19 44 -13 14 11 -63 65 -151 115 -187 l46 -33 22
-167 c29 -225 26 -213 61 -213 27 0 29 3 25 28 -21 122 -43 357 -42 452 0 101
-3 125 -27 195 -15 44 -40 100 -55 125 -16 25 -45 77 -65 117 -21 39 -46 79
-58 90 -11 10 -39 38 -63 63 -43 44 -44 44 -127 50 -77 6 -82 9 -35 24 27 9
20 33 -13 45 -20 7 -30 17 -30 30 0 20 6 21 104 21 84 0 106 3 117 17 10 11
15 53 17 142 3 157 6 171 35 171 36 0 84 36 112 83 14 25 50 117 79 205 30 87
62 171 72 186 9 16 32 71 50 124 34 103 37 103 64 17 19 -59 46 -110 78 -144
15 -17 32 -36 38 -43 5 -7 21 -20 35 -29 23 -16 23 -17 6 -37 -10 -11 -27 -42
-37 -70 -18 -47 -19 -72 -13 -426 6 -364 7 -376 27 -395 12 -11 32 -21 46 -23
21 -3 24 -7 21 -33 -3 -33 -35 -100 -51 -110 -13 -8 -50 22 -50 40 0 14 47 58
80 75 14 8 20 15 13 17 -21 7 -73 -27 -145 -97 -44 -42 -72 -78 -73 -93 -2
-13 -8 -33 -13 -44 -13 -23 -6 -184 11 -268 12 -60 12 -60 47 -60 34 0 35 1
44 50 4 28 13 60 19 72 6 13 7 50 3 92 -5 64 -4 72 17 97 20 23 26 25 45 15
19 -10 22 -20 22 -66 0 -31 -5 -55 -10 -55 -13 0 -25 -29 -41 -103 -12 -55
-11 -58 12 -84 13 -15 17 -22 8 -15 -23 18 -47 5 -69 -37 -10 -20 -31 -47 -45
-60 -14 -13 -25 -31 -25 -41 0 -24 27 -51 44 -44 7 3 21 -6 30 -20 18 -28 45
-33 65 -13 10 10 14 9 22 -6 14 -24 33 -21 81 13 28 21 45 27 52 20 15 -15 42
-12 56 5 7 8 20 15 30 15 10 0 23 7 31 16 10 13 10 17 -2 25 -12 7 -12 9 1 10
8 1 18 1 22 0 32 -5 88 219 88 354 0 61 -5 89 -20 117 -11 20 -16 40 -11 43 5
3 12 18 16 34 3 16 13 35 21 42 17 14 18 62 3 91 -8 14 -8 18 0 14 6 -4 13 5
17 21 3 15 10 46 16 67 7 29 6 41 -3 46 -9 6 -9 33 1 124 12 112 10 141 -9
120 -13 -14 -31 -194 -24 -241 3 -23 2 -54 -1 -69 l-7 -27 -26 25 -25 26 17
228 c10 126 20 247 24 269 l7 40 18 -33 c33 -63 33 -22 0 67 -36 95 -58 237
-47 304 4 25 14 44 29 54 13 8 24 23 24 32 0 10 11 28 25 41 31 29 32 69 6
160 -13 48 -17 86 -14 140 8 115 -14 384 -37 475 -45 176 -137 309 -259 374
-47 25 -71 31 -118 31 -52 0 -63 -3 -87 -29 -26 -27 -66 -131 -66 -172 0 -10
-6 -19 -14 -19 -28 0 -66 46 -107 130 -23 47 -51 95 -62 107 -27 30 -104 58
-197 72 -41 7 -85 14 -97 17 -16 3 -34 -6 -61 -30 -40 -36 -85 -59 -96 -49 -3
4 -6 28 -6 53 0 44 3 49 30 60 40 17 95 82 116 137 16 42 18 43 60 43 137 0
203 108 191 312 -3 70 -10 99 -33 145 -34 67 -70 92 -146 102 -56 7 -58 9 -88
93 -12 31 -32 73 -45 93 -14 20 -25 40 -25 46 0 21 129 212 151 223 73 36 27
139 -49 109z m53 -48 c0 -25 -4 -30 -25 -30 -16 0 -26 6 -28 18 -6 30 6 49 30
45 18 -2 23 -9 23 -33z m-387 -189 c28 -9 52 -19 52 -22 0 -3 -21 -30 -47 -60
l-48 -54 -162 0 c-89 0 -219 -5 -288 -11 -70 -6 -128 -9 -130 -7 -2 2 3 21 10
43 21 60 73 93 190 120 84 20 350 14 423 -9z m149 -91 c24 -25 43 -49 43 -53
-1 -4 -18 -19 -39 -33 -21 -15 -56 -52 -77 -83 -34 -49 -42 -56 -64 -51 -100
23 -215 27 -414 17 -231 -13 -270 -20 -316 -58 -47 -40 -52 -73 -48 -354 3
-221 5 -259 21 -287 19 -36 64 -64 99 -62 22 2 22 2 -2 6 -14 3 -37 13 -51 24
-50 35 -54 62 -54 346 0 248 1 263 21 290 38 52 73 62 284 74 337 20 454 5
504 -64 20 -27 21 -41 21 -319 l0 -290 -31 -27 c-27 -25 -43 -29 -119 -36
l-87 -7 -37 36 -37 36 -133 0 -134 0 -32 -34 c-18 -19 -45 -36 -61 -39 l-29
-4 31 -2 c17 0 42 7 55 18 20 15 50 19 166 25 l141 6 31 -26 c30 -25 36 -26
119 -21 95 5 143 22 164 60 10 16 14 107 18 332 5 302 6 312 30 370 17 41 36
66 59 82 39 26 47 23 66 -33 13 -38 12 -39 -15 -52 -67 -32 -97 -244 -70 -484
12 -105 25 -137 59 -144 14 -3 30 -7 35 -8 13 -3 -53 -75 -83 -90 -84 -43
-414 -73 -681 -62 -190 8 -231 23 -268 97 -52 106 -54 565 -2 701 12 32 42 86
68 120 47 62 47 63 50 33 7 -58 1 -57 296 -50 149 4 285 11 302 16 20 6 48 31
78 69 25 33 54 60 63 60 9 0 36 -20 60 -45z m-344 -72 c-13 -2 -33 -2 -45 0
-13 2 -3 4 22 4 25 0 35 -2 23 -4z m-235 -10 c-16 -2 -40 -2 -55 0 -16 2 -3 4
27 4 30 0 43 -2 28 -4z m611 -23 c-43 -35 -66 -80 -82 -158 l-12 -57 -22 42
-21 41 43 60 c47 64 89 102 114 102 10 0 2 -11 -20 -30z m114 -137 c4 -4 -4
-18 -17 -32 -40 -42 -59 -136 -60 -293 -1 -160 -14 -143 -23 30 -7 131 8 238
39 277 19 24 47 32 61 18z m162 -45 l25 -11 -23 -11 c-27 -13 -67 -90 -66
-126 1 -19 3 -16 10 13 11 45 36 97 48 97 4 0 -3 -21 -16 -48 -13 -27 -26 -77
-31 -117 l-7 -70 -7 50 c-4 34 -5 20 -3 -41 4 -91 20 -151 52 -186 15 -16 15
-18 0 -18 -9 0 -23 10 -31 22 l-16 22 0 -22 c0 -18 -6 -22 -28 -22 -63 0 -94
75 -96 225 -2 181 33 255 119 255 24 0 56 -5 70 -12z m-1310 -69 c4 -6 7 -74
6 -152 0 -78 6 -191 13 -252 8 -60 12 -112 10 -115 -13 -12 -60 29 -71 62 -34
104 -41 324 -12 408 19 55 39 74 54 49z m-65 -2 c0 -1 -7 -34 -15 -72 -17 -79
-19 -229 -5 -325 5 -35 8 -65 7 -67 -2 -1 -13 0 -25 4 -39 10 -55 93 -50 257
6 155 15 192 50 199 13 2 26 5 31 6 4 0 7 0 7 -2z m1438 -29 c7 -7 12 -17 12
-22 0 -6 -5 -3 -11 7 -23 39 -59 15 -80 -52 -6 -21 -7 -22 -8 -6 -1 29 36 85
57 85 10 0 23 -5 30 -12z m-1536 -99 c-3 -49 -8 -72 -18 -76 -10 -4 -14 -24
-15 -72 l-1 -66 -9 55 c-9 63 2 154 26 199 8 17 17 31 18 31 1 0 0 -32 -1 -71z
m1549 -144 c-21 -47 -39 -55 -65 -29 -23 22 -20 30 3 10 11 -10 25 -15 31 -11
22 14 40 74 42 142 l2 68 3 -68 c3 -51 -1 -78 -16 -112z m-31 105 c0 -50 -15
-74 -31 -49 -19 31 -1 118 22 104 5 -4 9 -28 9 -55z m-63 -62 c-3 -8 -6 -5 -6
6 -1 11 2 17 5 13 3 -3 4 -12 1 -19z m-164 -240 c-2 -5 -13 -8 -23 -8 -10 0
-21 3 -23 8 -3 4 8 7 23 7 15 0 26 -3 23 -7z m-150 -209 c-6 -6 -33 -13 -60
-15 l-48 -3 44 9 c24 5 46 12 49 15 3 3 10 5 16 5 6 0 6 -4 -1 -11z m398 -44
c24 -9 51 -23 61 -32 18 -16 18 -17 -7 -31 -14 -7 -75 -48 -135 -91 -172 -124
-169 -123 -409 -133 -113 -5 -224 -14 -246 -20 -22 -6 -122 -13 -222 -15 -154
-4 -186 -2 -205 11 -18 13 -53 16 -178 16 -85 0 -161 4 -169 9 -9 6 -12 18 -7
37 l6 29 -20 -24 c-11 -13 -20 -34 -20 -47 0 -41 34 -54 145 -54 183 -1 227
-22 241 -117 7 -51 20 -83 38 -95 6 -4 53 -8 103 -8 l93 0 21 43 c12 23 35 62
51 87 l29 45 -35 -40 c-20 -22 -41 -52 -47 -67 l-11 -28 -108 0 -108 0 -12 53
c-27 115 -51 130 -232 137 -108 4 -141 8 -148 20 -15 23 -12 32 8 21 9 -5 84
-12 166 -16 l149 -8 37 -33 37 -34 152 0 151 0 51 35 c28 19 59 35 68 35 9 0
107 5 217 10 240 11 271 20 402 116 125 92 169 117 190 109 13 -5 9 -9 -21
-20 -71 -25 -114 -73 -177 -200 -62 -127 -85 -199 -106 -333 -13 -80 -23 -113
-39 -132 -44 -49 -54 -76 -74 -195 -26 -149 -67 -310 -90 -350 -9 -16 -37 -43
-62 -60 -34 -23 -40 -31 -26 -33 24 -5 95 45 112 78 21 41 71 251 90 375 15
105 18 112 52 142 32 29 37 41 53 130 20 112 39 187 46 181 2 -3 -2 -40 -10
-84 -8 -43 -18 -110 -22 -149 -4 -42 -14 -83 -26 -103 -12 -19 -24 -63 -28
-103 -7 -64 -31 -163 -81 -340 -34 -121 -134 -225 -244 -254 -97 -25 -127 -21
-180 25 l-46 40 -255 0 -254 0 -43 -45 c-34 -35 -51 -45 -76 -45 -48 0 -92 23
-135 70 -46 51 -72 108 -91 198 -18 84 -39 519 -33 667 5 110 5 110 -7 42 -6
-37 -15 -70 -20 -75 -14 -13 6 138 30 235 30 117 74 200 145 274 57 59 98 77
210 94 25 3 54 9 65 11 11 3 -8 -9 -41 -25 -47 -22 -72 -42 -104 -84 -23 -31
-39 -61 -35 -67 8 -12 728 -13 942 -1 141 8 142 9 236 54 89 44 163 94 153
104 -2 2 -48 -19 -101 -47 -102 -53 -130 -58 -130 -25 0 17 9 21 60 25 34 3
73 14 90 24 45 29 85 68 85 83 0 17 38 16 91 -2z m-393 -15 c-35 -21 -182 -33
-400 -34 -182 -1 -230 2 -240 13 -11 12 -10 13 7 7 64 -23 475 -13 585 13 51
13 69 13 48 1z m32 -59 c0 -20 -138 -33 -382 -38 -252 -5 -340 -1 -322 17 5 5
41 5 84 -2 131 -18 559 3 618 31 1 0 2 -3 2 -8z m840 4 c0 -3 -7 -16 -15 -29
-38 -57 -55 -228 -34 -340 6 -32 8 -61 4 -64 -3 -3 -30 -9 -60 -12 l-54 -6 -7
65 c-14 136 16 317 62 366 17 19 33 25 64 25 22 0 40 -2 40 -5z m62 -26 c39
-20 40 -21 20 -35 -23 -16 -57 -95 -50 -116 3 -7 8 3 12 23 7 41 46 89 72 89
35 0 121 -104 167 -202 65 -135 70 -165 71 -391 l1 -198 -35 6 c-49 9 -129 47
-166 78 -32 28 -121 208 -163 334 -27 82 -37 211 -22 298 12 68 35 135 46 135
3 0 24 -9 47 -21z m-1497 -64 l90 -12 -115 -4 c-136 -6 -143 -4 -129 23 8 15
16 18 37 13 15 -4 68 -13 117 -20z m585 -15 c-8 -5 -26 -9 -40 -9 -23 0 -23 1
-5 9 11 5 29 9 40 9 17 1 17 -1 5 -9z m451 -31 c-98 -60 -148 -193 -157 -419
-4 -98 -1 -158 10 -219 11 -62 12 -90 4 -110 -17 -42 -14 -180 6 -225 26 -62
65 -106 110 -127 l41 -19 -31 0 c-58 0 -147 86 -189 183 -8 17 -14 25 -15 17
0 -31 60 -140 100 -179 23 -22 57 -45 76 -51 19 -6 34 -15 34 -20 0 -5 -16
-54 -36 -109 -31 -87 -39 -101 -59 -101 -30 0 -154 83 -232 154 -50 46 -61 61
-54 74 17 33 90 339 97 408 6 67 18 103 36 115 5 3 13 46 18 95 34 299 120
505 230 547 36 13 42 5 11 -14z m126 -36 c31 -14 33 -17 16 -24 -23 -8 -77
-68 -97 -107 -84 -164 -73 -421 23 -522 27 -29 33 -40 21 -40 -25 0 -66 49
-96 115 -24 51 -29 78 -33 180 l-6 120 -7 -70 c-15 -143 21 -312 78 -366 29
-27 30 -35 4 -49 -89 -48 -182 249 -152 485 15 118 52 205 110 258 48 42 82
47 139 20z m-1989 -68 c3 -3 -4 -12 -16 -21 -22 -15 -91 -112 -106 -149 -5
-11 -12 -45 -16 -75 l-7 -55 -2 67 c-1 63 -12 91 -26 68 -3 -5 -6 -42 -7 -82
0 -65 -2 -69 -10 -38 -19 69 14 199 48 186 18 -7 18 11 -1 30 -15 15 -20 11
-53 -51 -8 -14 -11 -15 -12 -5 0 23 67 103 103 123 30 17 89 18 105 2z m79
-82 c1 -10 -6 -67 -14 -128 -12 -88 -13 -123 -4 -179 6 -38 9 -71 6 -74 -8 -8
-55 39 -73 73 -8 17 -21 66 -28 110 l-14 80 5 -79 c6 -102 39 -177 89 -207 28
-16 36 -27 36 -50 0 -37 -11 -36 -53 1 -51 44 -99 158 -105 246 -5 78 17 173
46 196 13 11 15 10 8 -12 -4 -14 -9 -41 -12 -60 -4 -28 -1 -24 14 18 11 29 28
59 38 67 27 20 60 19 61 -2z m1957 3 c-9 -23 15 -166 36 -212 10 -24 17 -44
15 -44 -10 0 -56 103 -69 151 l-13 51 -21 -27 c-12 -15 -24 -43 -28 -62 -6
-34 0 -141 11 -193 4 -18 1 -16 -12 10 -21 43 -24 181 -5 226 7 17 24 37 38
44 14 8 24 22 24 36 0 19 5 25 27 33 1 1 0 -5 -3 -13z m233 -288 c34 -38 88
-156 127 -277 44 -139 45 -158 10 -172 -15 -5 -29 -8 -31 -5 -2 2 -17 53 -33
112 -31 116 -80 267 -99 302 -6 12 -20 26 -31 32 -18 10 -19 9 -9 -17 22 -57
151 -409 155 -423 3 -11 -23 -27 -93 -58 -54 -23 -103 -42 -109 -42 -6 0 -34
60 -61 133 -76 199 -95 262 -91 304 3 35 8 40 63 70 60 33 135 61 166 62 8 1
25 -9 36 -21z m-2494 -34 c51 -19 96 -39 101 -44 5 -5 -8 -47 -29 -97 -42 -99
-88 -197 -80 -170 3 9 7 25 10 35 3 9 -6 -5 -19 -33 -27 -54 -34 -86 -11 -45
17 30 20 21 4 -14 -7 -14 -17 -23 -22 -19 -6 4 -8 0 -4 -10 3 -10 3 -17 -2
-17 -4 0 -13 -17 -19 -39 -19 -61 -28 -64 -112 -30 -41 17 -76 32 -78 33 -2 2
0 15 3 28 5 20 11 24 31 20 15 -3 24 0 24 8 0 7 -7 10 -15 6 -21 -8 -19 6 14
104 19 55 26 89 20 96 -10 12 21 106 55 172 15 30 15 31 -1 26 -10 -3 -7 2 7
10 14 8 26 15 28 16 1 0 44 -16 95 -36z m-172 -61 c-12 -20 -14 -14 -5 12 4 9
9 14 11 11 3 -2 0 -13 -6 -23z m-51 -230 c-18 -48 -38 -100 -44 -115 -11 -29
-30 -36 -41 -18 -6 9 57 184 88 245 10 19 10 19 20 -2 7 -16 1 -43 -23 -110z
m430 108 c0 -24 -48 -158 -95 -267 -58 -133 -74 -161 -91 -168 -12 -5 -266
106 -292 127 -29 23 2 14 112 -33 122 -52 147 -58 164 -37 13 15 126 262 154
335 11 29 26 52 34 52 8 0 14 -4 14 -9z m2574 -98 l46 -6 17 -56 c9 -31 16
-72 17 -91 1 -32 -1 -35 -31 -38 -66 -6 -87 16 -129 141 l-40 114 38 -29 c24
-20 52 -32 82 -35z m-93 -157 c-6 -8 -33 -21 -59 -31 -75 -28 -142 -65 -168
-90 -14 -14 -24 -19 -24 -11 0 29 45 57 218 132 26 11 32 20 34 46 l1 33 4
-33 c3 -18 -1 -39 -6 -46z m74 -109 c16 -13 15 -14 -14 -9 -17 2 -34 8 -37 13
-8 14 30 10 51 -4z m-3136 -38 c-30 -30 -59 -98 -59 -139 0 -19 -10 -51 -23
-70 l-22 -35 -3 36 c-2 19 6 60 18 91 19 53 82 138 101 138 5 0 0 -9 -12 -21z
m193 -15 c14 -7 40 -30 56 -50 28 -34 30 -40 19 -67 -21 -51 -38 -55 -117 -28
-101 35 -130 55 -130 89 0 68 90 97 172 56z m2886 -22 c5 -48 -46 -96 -120
-112 -67 -15 -88 -5 -88 40 0 67 94 126 175 110 25 -5 31 -11 33 -38z m47 38
c3 -5 2 -10 -4 -10 -5 0 -13 5 -16 10 -3 6 -2 10 4 10 5 0 13 -4 16 -10z m25
-172 c1 -53 7 -110 15 -132 9 -25 11 -46 5 -62 -5 -12 -19 -141 -32 -285 l-22
-262 29 -26 c52 -45 62 -67 13 -27 -26 21 -68 44 -94 52 -68 20 -172 18 -216
-4 l-36 -19 6 36 c9 55 77 102 144 100 28 -1 26 -3 -13 -9 -52 -9 -79 -21 -99
-44 -17 -21 -8 -20 33 4 23 13 63 23 113 28 70 6 80 10 91 32 11 21 10 27 -4
38 -9 6 -28 12 -41 12 -22 0 -24 3 -19 33 4 17 9 145 13 284 l7 252 26 9 c15
5 35 26 46 46 11 20 23 36 27 36 5 0 8 -42 8 -92z m-878 -109 c34 -22 72 -42
85 -45 27 -7 28 -12 7 -42 -19 -28 -36 -28 -118 3 -90 34 -118 32 -214 -15
-45 -21 -109 -45 -141 -51 l-60 -13 -55 52 -55 52 -280 0 c-258 0 -305 -4
-271 -25 14 -9 263 -8 407 0 l122 7 48 -45 48 -45 -30 -7 c-55 -11 -80 -30
-108 -83 l-28 -52 -195 0 -194 0 -54 49 c-47 42 -62 50 -119 60 -94 16 -190
47 -221 72 -35 27 -53 73 -71 177 -20 113 -19 125 7 74 43 -84 129 -142 209
-142 16 0 45 17 78 45 l53 45 235 0 235 0 52 -41 c50 -41 52 -41 112 -35 96
10 149 33 212 91 32 29 64 65 71 79 l14 26 79 -76 c43 -41 106 -93 140 -115z
m-2243 118 c1 -4 -26 -55 -59 -112 -73 -127 -182 -346 -175 -353 3 -3 13 2 23
11 10 10 30 17 44 17 44 0 68 93 28 108 -18 7 -15 15 40 117 33 61 72 134 87
163 15 28 31 52 36 52 14 0 150 -66 172 -84 16 -13 17 -17 6 -25 -7 -5 -11
-14 -7 -20 6 -10 -39 -111 -49 -111 -3 0 6 23 21 51 14 28 23 53 20 56 -3 3
-10 -6 -15 -20 -6 -14 -22 -50 -36 -79 -14 -29 -19 -44 -10 -34 24 31 18 11
-19 -62 -18 -37 -53 -111 -76 -165 -42 -95 -44 -98 -69 -91 -14 5 -75 9 -134
9 -115 2 -127 6 -127 52 0 50 84 240 200 452 22 41 40 85 40 98 l0 25 29 -24
c17 -13 30 -27 30 -31z m247 -22 c-9 -14 -22 -25 -28 -25 -7 0 -5 7 4 18 9 9
19 28 24 42 6 20 9 22 12 7 2 -10 -4 -29 -12 -42z m2754 -52 c0 -79 -17 -372
-26 -454 l-6 -57 -48 -6 c-26 -4 -65 -18 -85 -32 -21 -14 -39 -24 -40 -22 -2
2 -6 127 -10 278 l-7 275 25 29 c19 24 37 32 93 42 111 20 104 23 104 -53z
m-3167 -318 c-9 -19 -18 -33 -21 -31 -4 5 26 66 33 66 3 0 -3 -16 -12 -35z
m1305 -100 c2 -46 9 -68 26 -90 l24 -30 209 -3 209 -3 37 25 c48 33 57 33 28
2 -47 -50 -75 -56 -263 -55 -95 1 -186 4 -202 8 -41 9 -94 84 -95 134 l-1 37
-80 0 c-45 0 -80 4 -80 10 0 5 26 7 66 3 56 -5 68 -4 76 11 5 9 17 16 26 14
13 -2 18 -17 20 -63z m1022 35 c0 -11 -148 -12 -285 -1 -78 7 -65 8 98 9 119
1 187 -2 187 -8z m-937 -90 c16 -5 104 -10 195 -10 138 0 172 3 190 16 13 9
26 14 29 11 2 -3 -8 -14 -23 -24 -25 -16 -49 -18 -217 -16 -163 1 -191 4 -208
19 -10 9 -19 24 -19 32 0 14 2 14 13 -1 6 -9 25 -21 40 -27z m947 20 c0 -6
-71 -9 -197 -8 l-198 2 150 6 c83 3 171 7 198 8 26 1 47 -2 47 -8z m-1070 -70
c0 -6 -27 -10 -60 -10 -33 0 -60 4 -60 10 0 6 27 10 60 10 33 0 60 -4 60 -10z
m768 -17 c-15 -2 -42 -2 -60 0 -18 2 -6 4 27 4 33 0 48 -2 33 -4z m-1974 -12
c3 -5 -16 -9 -44 -9 -54 -1 -125 -28 -152 -58 -9 -10 -18 -32 -21 -49 -4 -29
-4 -29 -6 5 -2 70 64 119 161 120 31 0 59 -4 62 -9z m1477 -64 c177 -7 228 -2
277 28 l27 16 -27 -23 c-15 -13 -30 -38 -34 -55 -3 -17 -19 -44 -36 -60 -29
-28 -30 -28 -176 -31 -81 -2 -163 0 -181 5 -48 12 -74 52 -81 122 l-6 59 32
-27 c31 -27 34 -28 205 -34z m-286 34 c8 -14 -9 -21 -65 -28 -41 -5 -50 -3
-50 10 0 8 6 18 13 20 22 9 96 7 102 -2z m835 -21 c10 -7 -9 -10 -62 -10 -46
0 -78 4 -78 10 0 13 120 13 140 0z m-2060 -34 c-19 -7 -46 -16 -60 -20 l-25
-7 24 20 c15 14 36 21 60 20 l36 0 -35 -13z m111 -20 c11 -20 10 -20 -6 -4
-17 15 -19 15 -42 -13 -16 -18 -23 -37 -20 -49 7 -29 0 -24 -18 10 -20 38 -6
70 31 70 14 0 22 4 19 10 -3 6 1 7 10 4 8 -4 20 -16 26 -28z m1078 -46 c53
-27 121 -70 150 -95 l53 -45 112 0 c96 0 117 3 137 19 47 36 290 152 308 146
10 -3 26 -14 35 -24 16 -17 15 -19 -14 -31 -40 -17 -68 -49 -184 -218 -106
-155 -156 -250 -156 -297 0 -54 -9 -59 -95 -49 l-78 9 -93 154 c-52 85 -115
197 -141 249 -39 78 -56 101 -99 134 -29 21 -55 46 -58 55 -6 14 9 43 21 43 3
0 48 -22 102 -50z m-1219 19 c0 -6 -10 -52 -22 -102 l-22 -92 -13 44 c-14 50
-4 112 24 144 18 19 33 22 33 6z m30 -61 c0 -18 -8 -31 -21 -39 -20 -10 -21
-9 -15 12 3 13 9 37 13 52 7 34 23 17 23 -25z m153 42 c-12 -5 -26 -17 -32
-27 -9 -16 -10 -16 -11 -1 0 18 26 38 50 37 9 0 6 -4 -7 -9z m37 -56 c0 -30
-25 -32 -40 -3 -9 15 -8 24 1 35 16 19 39 0 39 -32z m2926 4 c-3 -18 -8 -63
-12 -100 l-7 -66 -53 -4 c-50 -3 -54 -1 -54 19 0 12 4 24 8 27 5 3 14 31 21
63 21 96 18 93 63 93 40 0 40 0 34 -32z m-3224 -13 c-2 -20 1 -56 7 -81 10
-38 9 -47 -5 -61 -23 -23 -34 -2 -34 65 0 43 21 112 33 112 2 0 1 -16 -1 -35z
m3310 -26 c-12 -30 2 -117 20 -136 29 -29 41 -6 35 70 -4 63 -3 68 9 46 27
-49 13 -149 -21 -149 -37 0 -79 126 -56 169 15 27 23 27 13 0z m-3065 -24 c-4
-8 -11 -15 -17 -15 -6 0 -6 7 2 20 14 22 24 19 15 -5z m1402 15 c112 -1 115
-1 86 -17 -40 -22 -230 -13 -254 13 -15 15 -14 16 18 10 18 -3 86 -6 150 -6z
m531 -37 c-1 -38 -3 -44 -11 -30 -9 16 -4 77 7 77 2 0 4 -21 4 -47z m130 35
c-1 -37 -14 -58 -36 -58 -25 0 -31 20 -18 54 7 19 54 22 54 4z m-2201 -50 c-1
-41 -12 -55 -39 -48 -17 4 -21 8 -12 14 6 4 12 18 12 32 0 17 5 24 20 24 14 0
20 -6 19 -22z m1122 -24 c-14 -39 -16 -42 -19 -20 -3 26 13 66 27 66 5 0 1
-21 -8 -46z m-897 11 c9 -14 13 -25 8 -25 -5 0 -14 11 -20 25 -6 14 -10 25 -8
25 2 0 11 -11 20 -25z m-39 -18 c15 -36 31 -137 22 -137 -30 0 -59 26 -82 73
-14 30 -25 57 -25 60 0 7 50 36 63 37 4 0 14 -15 22 -33z m1001 -10 c14 -30
14 -31 -1 -12 -25 30 -39 59 -26 51 6 -4 18 -22 27 -39z m808 -2 c5 -22 4 -26
-4 -15 -5 8 -10 24 -10 34 0 26 6 18 14 -19z m226 -15 c0 -15 -56 -132 -72
-150 -7 -8 -34 -32 -61 -53 -69 -56 -82 -85 -80 -190 0 -49 4 -113 8 -143 l6
-54 -84 0 -84 0 -22 148 c-25 170 -26 230 -7 275 28 66 87 99 263 147 122 32
133 34 133 20z m-1976 -22 c3 -13 6 -34 6 -48 -1 -32 -15 -9 -23 38 -7 36 7
44 17 10z m-180 2 c16 -6 26 -17 26 -30 0 -28 -18 -25 -32 6 -11 24 -13 25
-25 8 -11 -14 -13 -15 -13 -3 0 14 8 29 16 29 1 0 14 -4 28 -10z m2802 -2 c4
-6 -2 -19 -14 -29 -19 -15 -20 -18 -5 -23 9 -4 13 -9 10 -12 -3 -3 -20 2 -37
11 l-32 17 23 24 c25 26 44 31 55 12z m-2956 -12 c0 -2 -7 -7 -16 -10 -8 -3
-12 -2 -9 4 6 10 25 14 25 6z m60 -16 c10 -19 -1 -60 -16 -60 -8 0 -33 64 -28
72 9 15 33 8 44 -12z m3090 -68 c0 -53 5 -84 15 -99 9 -13 11 -24 5 -28 -14
-9 -87 13 -93 29 -9 23 2 148 14 162 6 8 22 14 35 14 23 0 24 -3 24 -78z m137
42 c32 -15 65 -30 73 -34 26 -12 42 -151 19 -165 -5 -4 -48 11 -94 33 -80 38
-84 43 -95 83 -6 23 -9 57 -5 76 7 41 24 42 102 7z m-3287 -25 c7 -17 20 -38
29 -46 13 -14 13 -15 1 -11 -18 5 -66 88 -52 88 5 0 15 -14 22 -31z m1329 -71
c24 -27 40 -48 34 -48 -12 0 -88 79 -102 107 -17 33 -12 41 7 13 9 -14 37 -46
61 -72z m1571 80 c0 -2 -9 -25 -19 -53 -15 -40 -21 -46 -27 -32 -8 21 19 87
36 87 5 0 10 -1 10 -2z m-2790 -59 c-9 -15 -15 -18 -23 -10 -7 7 -5 16 8 32
22 24 32 10 15 -22z m2509 -18 c26 -47 51 -132 50 -171 0 -14 -14 15 -32 66
-18 50 -40 103 -50 117 -20 31 -21 40 -4 35 6 -3 23 -24 36 -47z m-2446 6 c3
-8 1 -20 -3 -27 -7 -11 -11 -11 -24 -1 -9 8 -16 20 -16 27 0 18 36 18 43 1z
m-89 -42 c9 -14 13 -25 10 -25 -11 0 -44 32 -44 42 0 16 18 8 34 -17z m1803
-70 c1 -77 17 -234 29 -295 3 -17 -3 -10 -19 19 -16 29 -26 39 -29 30 -3 -8
-6 -3 -6 11 0 14 -6 55 -13 93 -10 52 -11 79 -2 120 11 50 29 107 35 107 2 0
4 -38 5 -85z m1036 78 c-7 -2 -19 -2 -25 0 -7 3 -2 5 12 5 14 0 19 -2 13 -5z
m-2853 -48 c13 -14 21 -25 18 -25 -2 0 -15 11 -28 25 -13 14 -21 25 -18 25 2
0 15 -11 28 -25z m105 5 c23 -26 4 -26 -26 0 -18 15 -20 19 -8 20 9 0 24 -9
34 -20z m190 -10 c-27 -12 -43 -12 -25 0 8 5 22 9 30 9 10 0 8 -3 -5 -9z
m1023 -55 c27 -30 73 -87 102 -127 58 -83 32 -57 -93 90 -84 99 -91 127 -9 37z
m-1203 -13 c-5 -6 -75 40 -75 50 0 5 18 -3 39 -19 22 -15 38 -29 36 -31z
m2742 43 c2 -7 -13 -9 -38 -7 -29 3 -37 7 -28 13 18 12 61 7 66 -6z m-2643
-16 c16 -15 0 -20 -32 -8 -40 14 -43 34 -4 24 15 -3 31 -11 36 -16z m2816 10
c11 -7 4 -8 -25 -3 -50 8 -58 14 -19 14 16 0 36 -5 44 -11z m160 -11 c0 -39
-12 -68 -26 -68 -10 0 -14 13 -14 45 0 38 3 45 20 45 14 0 20 -7 20 -22z m60
-43 c0 -38 -9 -48 -30 -34 -9 5 -10 9 -3 9 6 0 9 9 6 20 -7 25 4 53 17 45 5
-3 10 -21 10 -40z m-410 -9 c0 -19 -3 -41 -6 -50 -10 -25 -24 -8 -24 28 0 17
-5 37 -12 44 -9 9 -6 12 15 12 24 0 27 -4 27 -34z m150 27 c0 -23 -22 -83 -30
-83 -13 0 -13 46 0 71 10 19 30 26 30 12z m291 -66 c-8 -8 -11 -1 -11 24 0 46
14 60 18 19 2 -18 -1 -37 -7 -43z m-3081 32 c27 -15 -11 -10 -45 6 l-30 14 30
-6 c17 -3 37 -9 45 -14z m2855 -86 c-10 -35 -15 -66 -12 -69 9 -10 -45 -55
-59 -50 -13 5 -12 9 1 30 12 19 14 29 6 44 -9 17 -7 21 14 26 21 5 28 18 43
69 12 45 18 55 20 38 2 -14 -4 -53 -13 -88z m49 -12 c-18 -61 -29 -65 -13 -5
15 57 19 67 24 62 3 -2 -2 -28 -11 -57z m72 14 c-11 -42 -26 -78 -32 -73 -8 9
17 98 28 98 6 0 7 -11 4 -25z m53 -27 c-13 -48 -28 -56 -16 -9 6 23 14 41 18
41 4 0 3 -14 -2 -32z m38 0 c-3 -8 -6 -5 -6 6 -1 11 2 17 5 13 3 -3 4 -12 1
-19z m-312 -21 c10 -8 15 -19 11 -25 -15 -25 -63 -4 -53 22 8 20 18 20 42 3z
m302 -19 c-3 -8 -6 -5 -6 6 -1 11 2 17 5 13 3 -3 4 -12 1 -19z m-157 -44 c0
-2 -9 0 -20 6 -11 6 -20 13 -20 16 0 2 9 0 20 -6 11 -6 20 -13 20 -16z m-200
-2 c0 -5 -11 -14 -25 -20 -26 -12 -33 -4 -13 16 14 14 38 16 38 4z m290 -22
c12 -8 9 -10 -12 -10 -15 0 -30 5 -33 10 -8 13 25 13 45 0z m-112 -12 c-3 -7
-15 -14 -29 -16 -23 -2 -23 -2 -5 13 24 18 39 20 34 3z m-128 -23 c-13 -16
-40 -20 -40 -7 0 14 12 22 33 22 16 0 17 -3 7 -15z m70 -19 c0 -2 -7 -6 -15
-10 -8 -3 -15 -1 -15 4 0 6 7 10 15 10 8 0 15 -2 15 -4z"/>
<path d="M2760 3953 c-34 -10 -97 -13 -257 -11 l-211 3 -26 -24 c-15 -14 -31
-41 -37 -61 -20 -65 31 -141 92 -139 13 0 136 3 273 5 275 4 283 6 313 68 30
63 -7 146 -72 165 -20 5 -45 3 -75 -6z m34 -22 c-17 -4 -37 -11 -45 -15 -8 -4
-5 0 5 8 11 9 31 16 45 15 24 -1 24 -2 -5 -8z m-386 -34 c12 -11 22 -24 22
-28 0 -5 -12 3 -26 18 -21 21 -32 24 -61 20 -42 -7 -73 -32 -74 -61 0 -13 -3
-16 -6 -8 -9 22 19 64 52 78 35 15 61 10 93 -19z m379 -32 c-4 -8 -11 -15 -17
-15 -14 0 -13 27 3 33 16 6 21 1 14 -18z m-427 -1 c11 -12 11 -18 -2 -30 -16
-16 -48 -9 -48 10 0 13 20 36 31 36 4 0 12 -7 19 -16z m475 -4 c11 -17 -5 -50
-25 -50 -16 0 -17 3 -7 30 12 31 21 37 32 20z m-138 -22 c-3 -8 -6 -5 -6 6 -1
11 2 17 5 13 3 -3 4 -12 1 -19z m-260 -35 c-3 -10 -5 -2 -5 17 0 19 2 27 5 18
2 -10 2 -26 0 -35z m294 -30 c13 -16 12 -17 -3 -4 -17 13 -22 21 -14 21 2 0
10 -8 17 -17z"/>
<path d="M1815 2919 c-4 -6 -5 -12 -2 -15 2 -3 7 2 10 11 7 17 1 20 -8 4z"/>
<path d="M1862 2903 c-63 -117 -61 -610 3 -856 17 -66 43 -132 50 -126 2 3 -2
26 -10 51 -25 84 -55 289 -67 459 -12 178 -4 316 26 429 15 58 14 74 -2 43z"/>
<path d="M1791 2844 c0 -11 3 -14 6 -6 3 7 2 16 -1 19 -3 4 -6 -2 -5 -13z"/>
<path d="M2355 2668 c-16 -6 -40 -20 -53 -31 -17 -16 -34 -20 -70 -18 -58 2
-97 -11 -136 -47 -42 -39 -66 -98 -66 -163 0 -70 27 -115 90 -146 24 -13 66
-46 92 -74 60 -62 116 -88 186 -89 62 0 108 17 142 55 l25 27 -36 -21 c-48
-28 -116 -36 -181 -21 -45 11 -63 23 -119 79 -36 37 -79 73 -97 80 -94 39 -86
192 14 260 28 19 43 23 84 19 40 -4 53 -1 67 15 48 52 146 65 207 28 48 -30
69 -58 23 -31 -31 19 -49 22 -107 18 -90 -5 -143 -39 -182 -117 -48 -95 -30
-184 52 -254 72 -62 158 -63 243 -3 51 35 67 37 67 11 0 -36 87 26 111 79 52
115 -5 267 -107 283 -21 3 -53 17 -72 29 -60 41 -120 52 -177 32z m161 -110
c63 -43 94 -141 63 -201 -50 -98 -169 -122 -223 -46 -27 39 -18 45 15 11 71
-72 189 -16 189 91 0 82 -58 137 -144 137 -43 0 -53 -4 -86 -38 -25 -24 -41
-51 -45 -76 -16 -81 40 -172 126 -207 41 -17 42 -18 15 -18 -110 -3 -190 123
-156 245 32 114 154 165 246 102z m131 -10 c34 -38 43 -64 43 -123 0 -66 -20
-119 -50 -135 -31 -17 -35 -7 -16 40 29 74 15 163 -36 217 l-21 23 30 0 c18 0
37 -9 50 -22z m-161 -80 c19 -23 19 -23 -2 -5 -11 9 -33 17 -47 17 -29 0 -67
-31 -67 -54 0 -8 -4 -18 -10 -21 -20 -12 -9 24 16 54 32 39 81 43 110 9z m4
-52 c28 -35 -41 -99 -73 -67 -8 8 -2 13 21 17 41 8 43 34 2 34 -29 0 -38 9
-23 23 12 12 60 7 73 -7z"/>
<path d="M2104 2405 c-4 -8 -3 -27 0 -41 6 -21 11 -25 39 -22 25 2 33 8 35 26
2 13 -2 30 -8 38 -16 18 -59 18 -66 -1z m46 -30 c0 -9 -6 -12 -15 -9 -8 4 -15
10 -15 15 0 5 7 9 15 9 8 0 15 -7 15 -15z"/>
<path d="M3951 3044 c0 -11 3 -14 6 -6 3 7 2 16 -1 19 -3 4 -6 -2 -5 -13z"/>
<path d="M4136 2898 c-34 -48 -15 -190 34 -259 25 -34 64 -39 80 -10 16 30 12
166 -5 209 -32 76 -80 102 -109 60z m33 -35 c-20 -53 9 -169 50 -200 9 -7 11
-12 4 -13 -49 -1 -104 161 -74 218 17 32 33 27 20 -5z m71 -122 c-1 -34 -2
-35 -15 -17 -8 11 -15 36 -15 55 1 34 2 35 15 17 8 -11 15 -36 15 -55z"/>
<path d="M4051 2628 c25 -48 81 -128 90 -128 5 0 -7 21 -26 46 -20 26 -43 60
-51 75 -8 16 -17 29 -20 29 -2 0 1 -10 7 -22z"/>
<path d="M3525 2979 c-4 -6 -5 -12 -2 -15 2 -3 7 2 10 11 7 17 1 20 -8 4z"/>
<path d="M3492 2865 c0 -16 2 -22 5 -12 2 9 2 23 0 30 -3 6 -5 -1 -5 -18z"/>
<path d="M3690 2577 c0 -2 18 -59 41 -126 44 -135 111 -298 130 -315 19 -18 6
26 -50 174 -29 74 -63 165 -77 203 -14 37 -30 67 -35 67 -5 0 -9 -1 -9 -3z"/>
<path d="M1487 2473 c-21 -53 -36 -98 -33 -100 2 -2 20 40 40 93 20 53 35 98
33 100 -2 2 -20 -40 -40 -93z"/>
<path d="M4222 2263 c11 -43 31 -68 46 -59 7 4 7 20 -2 49 -8 30 -18 43 -33
45 -20 3 -21 1 -11 -35z"/>
<path d="M2282 1623 c3 -16 20 -18 171 -21 162 -2 167 -2 167 18 0 19 -6 20
-171 20 -157 0 -170 -1 -167 -17z"/>
<path d="M1187 1555 c-24 -50 -20 -58 4 -12 11 22 19 41 17 43 -3 2 -12 -12
-21 -31z"/>
<path d="M1132 1435 c-17 -37 -14 -45 4 -12 9 16 14 31 11 33 -2 2 -9 -7 -15
-21z"/>
<path d="M1087 1335 c-9 -19 -15 -35 -12 -35 7 0 37 61 33 66 -3 2 -12 -12
-21 -31z"/>
<path d="M3950 1727 c0 -57 -3 -180 -6 -273 -4 -93 -3 -166 1 -162 10 9 22
538 13 538 -5 0 -8 -47 -8 -103z"/>
<path d="M2303 1135 c5 -15 326 -28 356 -15 13 6 22 13 19 15 -10 10 -378 10
-375 0z"/>
<path d="M4233 705 c0 -27 2 -38 4 -22 2 15 2 37 0 50 -2 12 -4 0 -4 -28z"/>
<path d="M3328 4344 c-11 -11 -10 -142 1 -149 5 -3 12 -2 14 2 7 13 -8 155
-15 147z"/>
<path d="M1564 3174 c-18 -14 -18 -15 4 -4 12 6 22 13 22 15 0 8 -5 6 -26 -11z"/>
<path d="M1489 3113 l-34 -38 38 34 c34 33 42 41 34 41 -2 0 -19 -17 -38 -37z"/>
<path d="M4270 2011 c-24 -46 -9 -109 41 -171 l31 -39 -5 -103 c-3 -57 -9
-119 -13 -138 -6 -31 -5 -33 8 -22 34 27 50 184 28 261 -5 19 -6 30 -1 25 5
-5 14 -32 20 -61 13 -63 3 -179 -34 -403 -14 -85 -25 -161 -25 -170 1 -49 24
40 56 221 28 160 35 221 32 284 -6 97 -30 155 -61 147 -20 -5 -20 -4 -4 19 22
31 21 74 -3 127 -21 46 -52 56 -70 23z"/>
<path d="M3232 720 c0 -14 2 -19 5 -12 2 6 2 18 0 25 -3 6 -5 1 -5 -13z"/>
<path d="M3242 660 c0 -14 2 -19 5 -12 2 6 2 18 0 25 -3 6 -5 1 -5 -13z"/>
<path d="M3250 624 c0 -5 16 -56 35 -113 37 -111 63 -224 90 -391 9 -58 20
-109 25 -113 10 -12 -45 321 -66 392 -6 19 -4 22 7 16 8 -5 6 1 -4 12 -10 11
-33 63 -52 114 -19 52 -34 89 -35 83z"/>
<path d="M3104 520 c8 -106 61 -523 64 -507 4 19 -42 419 -58 502 l-9 50 3
-45z"/>
<path d="M3350 396 c0 -2 8 -10 18 -17 15 -13 16 -12 3 4 -13 16 -21 21 -21
13z"/>
</g>
</svg>